<svg xmlns="http://www.w3.org/2000/svg" xmlns:xlink="http://www.w3.org/1999/xlink" contentStyleType="text/css" data-diagram-type="STATE" height="995px" preserveAspectRatio="none" style="width:1002px;height:995px;background:#FFFFFF;" version="1.1" viewBox="0 0 1002 995" width="1002px" zoomAndPan="magnify"><?plantuml 1.2026.6?><defs/><g><g class="title" data-source-line="83"><text fill="#000000" font-family="sans-serif" font-size="14" font-weight="700" lengthAdjust="spacing" textLength="415.707" x="290.0987" y="23.5352">Planning Protocol &#8212; server-side state (TeamCoordinator)</text></g><rect fill="#F1F1F1" height="40" rx="12.5" ry="12.5" style="stroke:#181818;stroke-width:0.5;" width="207.4014" x="398.37" y="858.1083"/><text fill="#000000" font-family="sans-serif" font-size="14" lengthAdjust="spacing" textLength="197.4014" x="403.37" y="883.3993">INTERRUPTED / TERMINATED</text><g class="start_entity" data-qualified-name=".start." data-source-line="87" id="ent0002"><ellipse cx="60.07" cy="53.4883" fill="#222222" rx="10" ry="10" style="stroke:#222222;stroke-width:1;"/></g><rect fill="#F1F1F1" height="40" rx="12.5" ry="12.5" style="stroke:#181818;stroke-width:0.5;" width="106.1338" x="7" y="140.7983"/><text fill="#000000" font-family="sans-serif" font-size="14" lengthAdjust="spacing" textLength="96.1338" x="12" y="166.0893">ACK_PENDING</text><rect fill="#F1F1F1" height="40" rx="12.5" ry="12.5" style="stroke:#181818;stroke-width:0.5;" width="139.5752" x="290.28" y="258.1083"/><text fill="#000000" font-family="sans-serif" font-size="14" lengthAdjust="spacing" textLength="129.5752" x="295.28" y="283.3993">FACT_COLLECTION</text><rect fill="#F1F1F1" height="40" rx="12.5" ry="12.5" style="stroke:#181818;stroke-width:0.5;" width="91.7783" x="439.18" y="375.1083"/><text fill="#000000" font-family="sans-serif" font-size="14" lengthAdjust="spacing" textLength="81.7783" x="444.18" y="400.3993">DISCUSSION</text><rect fill="#F1F1F1" height="40" rx="12.5" ry="12.5" style="stroke:#181818;stroke-width:0.5;" width="80.7451" x="483.69" y="492.1083"/><text fill="#000000" font-family="sans-serif" font-size="14" lengthAdjust="spacing" textLength="70.7451" x="488.69" y="517.3993">PROPOSAL</text><rect fill="#F1F1F1" height="40" rx="12.5" ry="12.5" style="stroke:#181818;stroke-width:0.5;" width="112.1152" x="613.01" y="609.1083"/><text fill="#000000" font-family="sans-serif" font-size="14" lengthAdjust="spacing" textLength="102.1152" x="618.01" y="634.3993">ENDORSEMENT</text><rect fill="#F1F1F1" height="40" rx="12.5" ry="12.5" style="stroke:#181818;stroke-width:0.5;" width="86.2139" x="760.96" y="726.1083"/><text fill="#000000" font-family="sans-serif" font-size="14" lengthAdjust="spacing" textLength="76.2139" x="765.96" y="751.3993">SUBMITTAL</text><rect fill="#F1F1F1" height="40" rx="12.5" ry="12.5" style="stroke:#181818;stroke-width:0.5;" width="81.8525" x="644.14" y="858.1083"/><text fill="#000000" font-family="sans-serif" font-size="14" lengthAdjust="spacing" textLength="71.8525" x="649.14" y="883.3993">COMPLETE</text><g class="end_entity" data-qualified-name=".end." data-source-line="108" id="ent0019"><ellipse cx="591.07" cy="970.1083" fill="none" rx="11" ry="11" style="stroke:#222222;stroke-width:1;"/><ellipse cx="591.07" cy="970.1083" fill="#222222" rx="6" ry="6" style="stroke:#222222;stroke-width:1;"/></g><g class="entity" data-qualified-name="GMN28" data-source-line="91" id="ent0029"><path d="M148.34,140.4883 L148.34,156.7983 L113.52,160.7983 L148.34,164.7983 L148.34,181.1094 A0,0 0 0 0 148.34,181.1094 L431.8029,181.1094 A0,0 0 0 0 431.8029,181.1094 L431.8029,150.4883 L421.8029,140.4883 L148.34,140.4883 A0,0 0 0 0 148.34,140.4883" fill="#FEFFDD" style="stroke:#181818;stroke-width:0.5;"/><path d="M421.8029,140.4883 L421.8029,150.4883 L431.8029,150.4883 L421.8029,140.4883" fill="#FEFFDD" style="stroke:#181818;stroke-width:0.5;"/><text fill="#000000" font-family="sans-serif" font-size="13" lengthAdjust="spacing" textLength="262.4629" x="154.34" y="158.0566">opinion before ack -&gt; re-send ack, block</text><text fill="#000000" font-family="sans-serif" font-size="13" lengthAdjust="spacing" textLength="143.749" x="154.34" y="173.3672">watchdog: ack timeout</text></g><g class="entity" data-qualified-name="GMN31" data-source-line="97" id="ent0032"><path d="M464.76,265.4483 L464.76,274.1083 L430.13,278.1083 L464.76,282.1083 L464.76,290.7588 A0,0 0 0 0 464.76,290.7588 L677.3704,290.7588 A0,0 0 0 0 677.3704,290.7588 L677.3704,275.4483 L667.3704,265.4483 L464.76,265.4483 A0,0 0 0 0 464.76,265.4483" fill="#FEFFDD" style="stroke:#181818;stroke-width:0.5;"/><path d="M667.3704,265.4483 L667.3704,275.4483 L677.3704,275.4483 L667.3704,265.4483" fill="#FEFFDD" style="stroke:#181818;stroke-width:0.5;"/><text fill="#000000" font-family="sans-serif" font-size="13" lengthAdjust="spacing" textLength="191.6104" x="470.76" y="283.0166">watchdog: 480s (720s gemini)</text></g><!--link *start* to ACK_PENDING--><g class="link" data-entity-1="ent0002" data-entity-2="ent0003" data-link-type="dependency" data-source-line="87" id="lnk4"><path d="M60.07,63.8283 C60.07,80.9483 60.07,112.6483 60.07,135.3783" fill="none" id="*start*-to-ACK_PENDING" style="stroke:#181818;stroke-width:1;"/><polygon fill="#181818" points="60.07,140.3783,64.07,131.3783,60.07,135.3783,56.07,131.3783,60.07,140.3783" style="stroke:#181818;stroke-width:1;stroke-linejoin:miter;stroke-miterlimit:10;"/><text fill="#000000" font-family="sans-serif" font-size="13" lengthAdjust="spacing" textLength="112.6011" x="61.07" y="107.0566">team task created</text></g><!--link ACK_PENDING to FACT_COLLECTION--><g class="link" data-entity-1="ent0003" data-entity-2="ent0005" data-link-type="dependency" data-source-line="89" id="lnk6"><path d="M110.62,181.2283 C165.97,202.5083 249.5529,234.6345 304.8929,255.9045" fill="none" id="ACK_PENDING-to-FACT_COLLECTION" style="stroke:#181818;stroke-width:1;"/><polygon fill="#181818" points="309.56,257.6983,302.5942,250.7357,304.8929,255.9045,299.7241,258.2031,309.56,257.6983" style="stroke:#181818;stroke-width:1;stroke-linejoin:miter;stroke-miterlimit:10;"/><text fill="#000000" font-family="sans-serif" font-size="13" lengthAdjust="spacing" textLength="219.7241" x="229.03" y="224.6766">all planners ack_planning_protocol</text></g><!--link FACT_COLLECTION to DISCUSSION--><g class="link" data-entity-1="ent0005" data-entity-2="ent0007" data-link-type="dependency" data-source-line="95" id="lnk8"><path d="M380.99,298.3583 C404.06,319.5883 437.2895,350.164 460.3995,371.414" fill="none" id="FACT_COLLECTION-to-DISCUSSION" style="stroke:#181818;stroke-width:1;"/><polygon fill="#181818" points="464.08,374.7983,460.1625,365.7621,460.3995,371.414,454.7476,371.6509,464.08,374.7983" style="stroke:#181818;stroke-width:1;stroke-linejoin:miter;stroke-miterlimit:10;"/><text fill="#000000" font-family="sans-serif" font-size="13" lengthAdjust="spacing" textLength="139.5151" x="431.05" y="341.6766">all fact_collection_end</text></g><!--link DISCUSSION to DISCUSSION--><g class="link" data-entity-1="ent0007" data-entity-2="ent0007" data-link-type="dependency" data-source-line="100" id="lnk9"><path d="M531.21,384.2183 C550.06,383.5383 565.96,387.1683 565.96,395.1083 C565.96,403.0483 555.0567,406.8585 536.2067,406.1785" fill="none" id="DISCUSSION-to-DISCUSSION" style="stroke:#181818;stroke-width:1;"/><polygon fill="#181818" points="531.21,405.9983,540.0599,410.3201,536.2067,406.1785,540.3484,402.3253,531.21,405.9983" style="stroke:#181818;stroke-width:1;stroke-linejoin:miter;stroke-miterlimit:10;"/><text fill="#000000" font-family="sans-serif" font-size="13" lengthAdjust="spacing" textLength="100.8706" x="571.96" y="400.1766">opinion (rank 0)</text></g><!--link DISCUSSION to PROPOSAL--><g class="link" data-entity-1="ent0007" data-entity-2="ent0010" data-link-type="dependency" data-source-line="101" id="lnk11"><path d="M491.59,415.3583 C498.79,436.5883 508.7035,465.8134 515.9135,487.0634" fill="none" id="DISCUSSION-to-PROPOSAL" style="stroke:#181818;stroke-width:1;"/><polygon fill="#181818" points="517.52,491.7983,518.4162,481.9903,515.9135,487.0634,510.8404,484.5607,517.52,491.7983" style="stroke:#181818;stroke-width:1;stroke-linejoin:miter;stroke-miterlimit:10;"/><text fill="#000000" font-family="sans-serif" font-size="13" lengthAdjust="spacing" textLength="182.1841" x="507.9" y="458.6766">agreement_proposal (rank 1)</text></g><!--link PROPOSAL to ENDORSEMENT--><g class="link" data-entity-1="ent0010" data-entity-2="ent0012" data-link-type="dependency" data-source-line="103" id="lnk13"><path d="M529.7,532.3583 C534.8,546.8383 543.6,566.3183 557.07,579.1083 C572.61,593.8683 588.6643,602.7949 608.0443,610.3849" fill="none" id="PROPOSAL-to-ENDORSEMENT" style="stroke:#181818;stroke-width:1;"/><polygon fill="#181818" points="612.7,612.2083,605.7785,605.2017,608.0443,610.3849,602.8611,612.6508,612.7,612.2083" style="stroke:#181818;stroke-width:1;stroke-linejoin:miter;stroke-miterlimit:10;"/><text fill="#000000" font-family="sans-serif" font-size="13" lengthAdjust="spacing" textLength="222.8027" x="558.07" y="575.6766">orchestrator requests endorsement</text></g><!--link ENDORSEMENT to DISCUSSION--><g class="link" data-entity-1="ent0012" data-entity-2="ent0007" data-link-type="dependency" data-source-line="104" id="lnk14"><path d="M725.53,618.6283 C759.79,609.6583 795.14,592.8183 785.07,562.1083 C764.95,500.7883 753.01,480.5283 699.07,445.1083 C648.09,411.6383 582.2265,401.2349 536.2565,397.8549" fill="none" id="ENDORSEMENT-to-DISCUSSION" style="stroke:#181818;stroke-width:1;"/><polygon fill="#181818" points="531.27,397.4883,539.9525,402.1375,536.2565,397.8549,540.5391,394.159,531.27,397.4883" style="stroke:#181818;stroke-width:1;stroke-linejoin:miter;stroke-miterlimit:10;"/><text fill="#000000" font-family="sans-serif" font-size="13" lengthAdjust="spacing" textLength="211.6943" x="775.21" y="517.1766">opinion (reject -&gt; keep debating)</text></g><!--link ENDORSEMENT to SUBMITTAL--><g class="link" data-entity-1="ent0012" data-entity-2="ent0015" data-link-type="dependency" data-source-line="105" id="lnk16"><path d="M691.66,649.3583 C716.58,670.5883 752.6435,701.3063 777.5935,722.5563" fill="none" id="ENDORSEMENT-to-SUBMITTAL" style="stroke:#181818;stroke-width:1;"/><polygon fill="#181818" points="781.4,725.7983,777.1419,716.9175,777.5935,722.5563,771.9547,723.0079,781.4,725.7983" style="stroke:#181818;stroke-width:1;stroke-linejoin:miter;stroke-miterlimit:10;"/><text fill="#000000" font-family="sans-serif" font-size="13" lengthAdjust="spacing" textLength="196.8979" x="745.65" y="692.6766">agreement_acceptance (rank 2)</text></g><!--link SUBMITTAL to COMPLETE--><g class="link" data-entity-1="ent0015" data-entity-2="ent0017" data-link-type="dependency" data-source-line="107" id="lnk18"><path d="M786.25,766.5683 C763.69,791.2183 728.4256,829.7397 705.9956,854.2497" fill="none" id="SUBMITTAL-to-COMPLETE" style="stroke:#181818;stroke-width:1;"/><polygon fill="#181818" points="702.62,857.9383,711.6469,853.9993,705.9956,854.2497,705.7451,848.5984,702.62,857.9383" style="stroke:#181818;stroke-width:1;stroke-linejoin:miter;stroke-miterlimit:10;"/><text fill="#000000" font-family="sans-serif" font-size="13" lengthAdjust="spacing" textLength="130.3872" x="792.595" y="809.6766">submit_plan (rank 3)</text><text fill="#000000" font-family="sans-serif" font-size="13" lengthAdjust="spacing" textLength="196.1172" x="759.73" y="824.9872">(by the non-accepting planner)</text></g><!--link COMPLETE to *end*--><g class="link" data-entity-1="ent0017" data-entity-2="ent0019" data-link-type="dependency" data-source-line="108" id="lnk20"><path d="M665.13,898.1983 C644.44,918.0083 616.7314,944.5303 602.3714,958.2803" fill="none" id="COMPLETE-to-*end*" style="stroke:#181818;stroke-width:1;"/><polygon fill="#181818" points="598.76,961.7383,608.0269,958.403,602.3714,958.2803,602.4941,952.6248,598.76,961.7383" style="stroke:#181818;stroke-width:1;stroke-linejoin:miter;stroke-miterlimit:10;"/></g><!--link ACK_PENDING to ERR--><g class="link" data-entity-1="ent0003" data-entity-2="ent0001" data-link-type="dependency" data-source-line="111" id="lnk21"><path d="M52.14,181.0083 C43.56,203.6083 31.07,242.4283 31.07,277.1083 C31.07,277.1083 31.07,277.1083 31.07,747.1083 C31.07,822.7083 254.4428,855.5817 393.1428,868.8617" fill="none" id="ACK_PENDING-to-ERR" style="stroke:#181818;stroke-width:1;"/><polygon fill="#181818" points="398.12,869.3383,389.5422,864.4987,393.1428,868.8617,388.7797,872.4623,398.12,869.3383" style="stroke:#181818;stroke-width:1;stroke-linejoin:miter;stroke-miterlimit:10;"/><text fill="#000000" font-family="sans-serif" font-size="13" lengthAdjust="spacing" textLength="274.0347" x="32.07" y="517.1766">illegal type / agent error / watchdog expiry</text></g><!--link FACT_COLLECTION to ERR--><g class="link" data-entity-1="ent0005" data-entity-2="ent0001" data-link-type="dependency" data-source-line="112" id="lnk22"><path d="M360.07,298.2383 C360.07,321.0583 360.07,360.3683 360.07,394.1083 C360.07,394.1083 360.07,394.1083 360.07,747.1083 C360.07,799.9183 409.6876,834.8226 451.0976,855.5226" fill="none" id="FACT_COLLECTION-to-ERR" style="stroke:#181818;stroke-width:1;"/><polygon fill="#181818" points="455.57,857.7583,449.3083,850.1563,451.0976,855.5226,445.7313,857.312,455.57,857.7583" style="stroke:#181818;stroke-width:1;stroke-linejoin:miter;stroke-miterlimit:10;"/></g><!--link DISCUSSION to ERR--><g class="link" data-entity-1="ent0007" data-entity-2="ent0001" data-link-type="dependency" data-source-line="113" id="lnk23"><path d="M469.45,415.5783 C453.5,437.4583 431.07,474.7183 431.07,511.1083 C431.07,511.1083 431.07,511.1083 431.07,747.1083 C431.07,790.8283 459.0809,830.0511 480.1109,854.0011" fill="none" id="DISCUSSION-to-ERR" style="stroke:#181818;stroke-width:1;"/><polygon fill="#181818" points="483.41,857.7583,480.4774,848.3562,480.1109,854.0011,474.466,853.6347,483.41,857.7583" style="stroke:#181818;stroke-width:1;stroke-linejoin:miter;stroke-miterlimit:10;"/></g><!--link PROPOSAL to ERR--><g class="link" data-entity-1="ent0010" data-entity-2="ent0001" data-link-type="dependency" data-source-line="114" id="lnk24"><path d="M522.9,532.4183 C519.09,595.4783 507.3419,789.8674 503.5319,852.8474" fill="none" id="PROPOSAL-to-ERR" style="stroke:#181818;stroke-width:1;"/><polygon fill="#181818" points="503.23,857.8383,507.7662,849.0962,503.5319,852.8474,499.7808,848.6132,503.23,857.8383" style="stroke:#181818;stroke-width:1;stroke-linejoin:miter;stroke-miterlimit:10;"/></g><!--link ENDORSEMENT to ERR--><g class="link" data-entity-1="ent0012" data-entity-2="ent0001" data-link-type="dependency" data-source-line="115" id="lnk25"><path d="M655.96,649.4883 C624.74,695.6583 549.0708,807.5964 517.9108,853.6764" fill="none" id="ENDORSEMENT-to-ERR" style="stroke:#181818;stroke-width:1;"/><polygon fill="#181818" points="515.11,857.8183,523.465,852.6035,517.9108,853.6764,516.838,848.1222,515.11,857.8183" style="stroke:#181818;stroke-width:1;stroke-linejoin:miter;stroke-miterlimit:10;"/><text fill="#000000" font-family="sans-serif" font-size="13" lengthAdjust="spacing" textLength="134.5386" x="603.17" y="751.1766">confirmed regression</text></g><!--link SUBMITTAL to ERR--><g class="link" data-entity-1="ent0015" data-entity-2="ent0001" data-link-type="dependency" data-source-line="116" id="lnk26"><path d="M760.76,765.7783 C722.66,782.1983 665.69,806.7583 616.07,828.1083 C593.41,837.8583 572.8041,846.715 551.8741,855.705" fill="none" id="SUBMITTAL-to-ERR" style="stroke:#181818;stroke-width:1;"/><polygon fill="#181818" points="547.28,857.6783,557.1281,857.8016,551.8741,855.705,553.9708,850.451,547.28,857.6783" style="stroke:#181818;stroke-width:1;stroke-linejoin:miter;stroke-miterlimit:10;"/></g><!--link ERR to *end*--><g class="link" data-entity-1="ent0001" data-entity-2="ent0019" data-link-type="dependency" data-source-line="117" id="lnk27"><path d="M520.94,898.1983 C540.54,918.0083 566.6639,944.4334 580.2639,958.1834" fill="none" id="ERR-to-*end*" style="stroke:#181818;stroke-width:1;"/><polygon fill="#181818" points="583.78,961.7383,580.2949,952.5266,580.2639,958.1834,574.6071,958.1524,583.78,961.7383" style="stroke:#181818;stroke-width:1;stroke-linejoin:miter;stroke-miterlimit:10;"/></g><?plantuml-src VLF1ZjCm4BtxAqPxQX3LBWiIQ0z89GseeasY9Zq1YbndcfWcTh1Tbjxu2BwGBs7SXcwR8YvHxBmtxysRYPEkGKWRhfHK5QH6Eorq0xz__WABvZkQiPKbWdNS8Onov6sejIcbuawRWDcjL1qtl0LRyr8_-Y8RtbXajQTXsxazb6Y5aPsJMZ7swTaN68_VmYJyMAHHF9t57-0171K6n-qMX46IAXax1tZ2-qcO5s4odqTXFajY8l6cWSvRHsE1YstHzNqKNTy7Kvfi6rdL3lJcN9C1w4ugiWHht6Y3lW2GZC6nHLNwutDODrfi2Vh8dQXBNJqSK4wsg7UEUPWNO6pepVkTph9mbMLFLZTSk89CDIXy50NH1_u6PIw4Nxsvip1wVK_F2bjo7fpfdsbTIVzjSsIusi9TC0IdooHDiidSkwmCOelA-G0xRNdJiru4Z9rmdaGX9iiiMaHnxYMCgD4wutU20loseuC5igUDFTHZv_Z_ECIlb8sVmXQnexrPSqVZ3AxesUhTOfRd0zDS2EmSLm9xs_Ta-mdgYM6oIETH7X7FxjQjT8UTwU4lWyzgjDw3gv5oLUDZFR_I_PO5xCJtnMYL6Jl-6JUpE8-MorMQHrEu1NfVpE897Mw0Mw0lL-jCTsH2qZPK5BFRTqWyNb4VWCPGZhUduGF-wAJP_tFBVEd1GFtLvR3eOfZWKLvejP6cnPAcHZ5Qwt_HoyGEP0Bt3Vy1?></g></svg>